<svg width="21" height="21" viewBox="0 0 21 21" fill="none" xmlns="http://www.w3.org/2000/svg">
<path d="M1.79688 10.6987L3.79688 8.69873M3.79688 8.69873L10.7969 1.69873L17.7969 8.69873M3.79688 8.69873V18.6987C3.79688 18.9639 3.90223 19.2183 4.08977 19.4058C4.2773 19.5934 4.53166 19.6987 4.79688 19.6987H7.79688M17.7969 8.69873L19.7969 10.6987M17.7969 8.69873V18.6987C17.7969 18.9639 17.6915 19.2183 17.504 19.4058C17.3164 19.5934 17.0621 19.6987 16.7969 19.6987H13.7969M7.79688 19.6987C8.06209 19.6987 8.31645 19.5934 8.50398 19.4058C8.69152 19.2183 8.79688 18.9639 8.79688 18.6987V14.6987C8.79688 14.4335 8.90223 14.1792 9.08977 13.9916C9.2773 13.8041 9.53166 13.6987 9.79688 13.6987H11.7969C12.0621 13.6987 12.3164 13.8041 12.504 13.9916C12.6915 14.1792 12.7969 14.4335 12.7969 14.6987V18.6987C12.7969 18.9639 12.9022 19.2183 13.0898 19.4058C13.2773 19.5934 13.5317 19.6987 13.7969 19.6987M7.79688 19.6987H13.7969" stroke="#37B3E7" stroke-width="2" stroke-linecap="round" stroke-linejoin="round"/>
</svg>
