<svg width="32" height="32" viewBox="0 0 32 32" fill="none" xmlns="http://www.w3.org/2000/svg">
<path fill-rule="evenodd" clip-rule="evenodd" d="M4.7998 7.9999C4.7998 7.57556 4.96838 7.16859 5.26843 6.86853C5.56849 6.56847 5.97546 6.3999 6.3998 6.3999H25.5998C26.0242 6.3999 26.4311 6.56847 26.7312 6.86853C27.0312 7.16859 27.1998 7.57556 27.1998 7.9999C27.1998 8.42425 27.0312 8.83121 26.7312 9.13127C26.4311 9.43133 26.0242 9.5999 25.5998 9.5999H6.3998C5.97546 9.5999 5.56849 9.43133 5.26843 9.13127C4.96838 8.83121 4.7998 8.42425 4.7998 7.9999ZM4.7998 15.9999C4.7998 15.5756 4.96838 15.1686 5.26843 14.8685C5.56849 14.5685 5.97546 14.3999 6.3998 14.3999H25.5998C26.0242 14.3999 26.4311 14.5685 26.7312 14.8685C27.0312 15.1686 27.1998 15.5756 27.1998 15.9999C27.1998 16.4242 27.0312 16.8312 26.7312 17.1313C26.4311 17.4313 26.0242 17.5999 25.5998 17.5999H6.3998C5.97546 17.5999 5.56849 17.4313 5.26843 17.1313C4.96838 16.8312 4.7998 16.4242 4.7998 15.9999ZM4.7998 23.9999C4.7998 23.5756 4.96838 23.1686 5.26843 22.8685C5.56849 22.5685 5.97546 22.3999 6.3998 22.3999H15.9998C16.4242 22.3999 16.8311 22.5685 17.1312 22.8685C17.4312 23.1686 17.5998 23.5756 17.5998 23.9999C17.5998 24.4242 17.4312 24.8312 17.1312 25.1313C16.8311 25.4313 16.4242 25.5999 15.9998 25.5999H6.3998C5.97546 25.5999 5.56849 25.4313 5.26843 25.1313C4.96838 24.8312 4.7998 24.4242 4.7998 23.9999Z" fill="#111928"/>
</svg>
