<svg width="28" height="20" viewBox="0 0 28 20" fill="none" xmlns="http://www.w3.org/2000/svg">
<rect width="28" height="20" rx="2" fill="white"/>
<mask id="mask0_1032_832" style="mask-type:luminance" maskUnits="userSpaceOnUse" x="0" y="0" width="28" height="20">
<rect width="28" height="20" rx="2" fill="white"/>
</mask>
<g mask="url(#mask0_1032_832)">
<rect width="28" height="20" fill="#128C4B"/>
<path fill-rule="evenodd" clip-rule="evenodd" d="M6.66699 12H17.3337V11.0787C17.3337 10.5831 17.8552 10.2608 18.2985 10.4824L18.667 10.6667V12H20.667C21.0352 12 21.3337 12.2985 21.3337 12.6667V13.3334C21.3337 14.0697 20.7367 14.6667 20.0003 14.6667H18.0003C17.6321 14.6667 17.3337 14.3682 17.3337 14V13.3334H8.27647C8.09966 13.3334 7.93009 13.2631 7.80506 13.1381L6.66699 12Z" fill="white"/>
<path fill-rule="evenodd" clip-rule="evenodd" d="M6.66699 8.13811C6.66699 8.04971 6.70211 7.96492 6.76462 7.90241L7.09796 7.56908C7.22813 7.4389 7.22813 7.22785 7.09796 7.09767L6.76462 6.76434C6.70211 6.70183 6.66699 6.61704 6.66699 6.52864V5.66671C6.66699 5.48261 6.81623 5.33337 7.00033 5.33337H7.74568C7.88632 5.33337 8.00033 5.44738 8.00033 5.58802C8.00033 5.85672 8.36256 5.94224 8.48273 5.7019L8.58211 5.50314C8.63413 5.39909 8.74047 5.33337 8.85679 5.33337H10.3337C10.5178 5.33337 10.667 5.48261 10.667 5.66671C10.667 5.8508 10.5178 6.00004 10.3337 6.00004H9.66699C9.4829 6.00004 9.33366 6.14928 9.33366 6.33337C9.33366 6.51747 9.4829 6.66671 9.66699 6.66671H10.3337C10.5178 6.66671 10.667 6.81595 10.667 7.00004V9.00004C10.667 9.18414 10.5178 9.33337 10.3337 9.33337H9.66699C9.4829 9.33337 9.33366 9.18414 9.33366 9.00004V8.33337C9.33366 8.14928 9.4829 8.00004 9.66699 8.00004C9.85109 8.00004 10.0003 7.8508 10.0003 7.66671C10.0003 7.48261 9.85109 7.33337 9.66699 7.33337H9.00033C8.81623 7.33337 8.66699 7.48261 8.66699 7.66671V9.00004C8.66699 9.18414 8.51775 9.33337 8.33366 9.33337C8.14956 9.33337 8.00033 9.18414 8.00033 9.00004V8.33337C8.00033 8.14928 7.85109 8.00004 7.66699 8.00004C7.4829 8.00004 7.33366 8.14928 7.33366 8.33337V9.00004C7.33366 9.18414 7.18442 9.33337 7.00033 9.33337C6.81623 9.33337 6.66699 9.18414 6.66699 9.00004V8.13811Z" fill="white"/>
<path fill-rule="evenodd" clip-rule="evenodd" d="M17.333 8.13811C17.333 8.04971 17.3681 7.96492 17.4306 7.90241L17.764 7.56908C17.8941 7.4389 17.8941 7.22785 17.764 7.09767L17.4306 6.76434C17.3681 6.70183 17.333 6.61704 17.333 6.52864V5.66671C17.333 5.48261 17.4822 5.33337 17.6663 5.33337H18.4117C18.5523 5.33337 18.6663 5.44738 18.6663 5.58802C18.6663 5.85672 19.0286 5.94224 19.1487 5.7019L19.2481 5.50314C19.3001 5.39909 19.4065 5.33337 19.5228 5.33337H20.9997C21.1838 5.33337 21.333 5.48261 21.333 5.66671C21.333 5.8508 21.1838 6.00004 20.9997 6.00004H20.333C20.1489 6.00004 19.9997 6.14928 19.9997 6.33337C19.9997 6.51747 20.1489 6.66671 20.333 6.66671H20.9997C21.1838 6.66671 21.333 6.81595 21.333 7.00004V9.00004C21.333 9.18414 21.1838 9.33337 20.9997 9.33337H20.333C20.1489 9.33337 19.9997 9.18414 19.9997 9.00004V8.33337C19.9997 8.14928 20.1489 8.00004 20.333 8.00004C20.5171 8.00004 20.6663 7.8508 20.6663 7.66671C20.6663 7.48261 20.5171 7.33337 20.333 7.33337H19.6663C19.4822 7.33337 19.333 7.48261 19.333 7.66671V9.00004C19.333 9.18414 19.1838 9.33337 18.9997 9.33337C18.8156 9.33337 18.6663 9.18414 18.6663 9.00004V8.33337C18.6663 8.14928 18.5171 8.00004 18.333 8.00004C18.1489 8.00004 17.9997 8.14928 17.9997 8.33337V9.00004C17.9997 9.18414 17.8504 9.33337 17.6663 9.33337C17.4822 9.33337 17.333 9.18414 17.333 9.00004V8.13811Z" fill="white"/>
<path fill-rule="evenodd" clip-rule="evenodd" d="M16 6.33025C16 6.51607 15.8958 6.77087 15.7593 6.90739L15.574 7.09269C15.4411 7.22562 15.4375 7.43754 15.574 7.57406L15.7593 7.75936C15.8922 7.89228 16 8.14273 16 8.3365V8.99692C16 9.18274 15.8573 9.33337 15.6635 9.33337H15.0031C14.8173 9.33337 14.6667 9.19068 14.6667 8.99692V8.3365C14.6667 8.15068 14.6051 8.12309 14.512 8.30929L14.1546 9.02413C14.0692 9.19492 13.8431 9.33337 13.6697 9.33337H12.3303C12.1479 9.33337 12 9.17875 12 9.00004C12 8.81595 12.1427 8.66671 12.3365 8.66671H12.9969C13.1827 8.66671 13.3333 8.51208 13.3333 8.33337C13.3333 8.14928 13.1906 8.00004 12.9969 8.00004H12.3365C12.1506 8.00004 12 7.85667 12 7.67305V5.66036C12 5.47977 12.1427 5.33337 12.3365 5.33337H12.9969C13.1827 5.33337 13.3333 5.47606 13.3333 5.66983V6.33025C13.3333 6.51607 13.1787 6.66671 13 6.66671C12.8159 6.66671 12.6667 6.82133 12.6667 7.00004C12.6667 7.18414 12.8094 7.33337 13.0031 7.33337H13.6635C13.8494 7.33337 14 7.17644 14 7.00311V5.66363C14 5.48124 14.1546 5.33337 14.3333 5.33337C14.5174 5.33337 14.6667 5.47606 14.6667 5.66983V6.33025C14.6667 6.51607 14.8213 6.66671 15 6.66671C15.1841 6.66671 15.3333 6.52402 15.3333 6.33025V5.66983C15.3333 5.48401 15.488 5.33337 15.6667 5.33337C15.8508 5.33337 16 5.47606 16 5.66983V6.33025Z" fill="white"/>
</g>
</svg>
