<svg width="13" height="9" viewBox="0 0 13 9" fill="none" xmlns="http://www.w3.org/2000/svg">
<path fill-rule="evenodd" clip-rule="evenodd" d="M0.351344 1.2516C0.576377 1.02663 0.881547 0.900256 1.19974 0.900256C1.51794 0.900256 1.82311 1.02663 2.04814 1.2516L5.99974 5.2032L9.95134 1.2516C10.062 1.13699 10.1945 1.04557 10.3409 0.982678C10.4873 0.919787 10.6447 0.886684 10.8041 0.885299C10.9634 0.883915 11.1214 0.914276 11.2689 0.974613C11.4164 1.03495 11.5503 1.12405 11.663 1.23673C11.7757 1.3494 11.8648 1.48338 11.9251 1.63085C11.9855 1.77833 12.0158 1.93635 12.0144 2.09568C12.0131 2.25502 11.98 2.41248 11.9171 2.55889C11.8542 2.70529 11.7628 2.8377 11.6481 2.9484L6.84814 7.7484C6.62311 7.97336 6.31794 8.09974 5.99974 8.09974C5.68155 8.09974 5.37638 7.97336 5.15134 7.7484L0.351344 2.9484C0.126379 2.72337 0 2.4182 0 2.1C0 1.7818 0.126379 1.47663 0.351344 1.2516V1.2516Z" fill="#1F2A37"/>
</svg>
