<svg width="20" height="21" viewBox="0 0 20 21" fill="none" xmlns="http://www.w3.org/2000/svg">
<path fill-rule="evenodd" clip-rule="evenodd" d="M12.7068 5.79303C12.8943 5.98056 12.9996 6.23487 12.9996 6.50003C12.9996 6.76519 12.8943 7.0195 12.7068 7.20703L9.41379 10.5L12.7068 13.793C12.8889 13.9816 12.9897 14.2342 12.9875 14.4964C12.9852 14.7586 12.88 15.0094 12.6946 15.1948C12.5092 15.3803 12.2584 15.4854 11.9962 15.4877C11.734 15.49 11.4814 15.3892 11.2928 15.207L7.29279 11.207C7.10532 11.0195 7 10.7652 7 10.5C7 10.2349 7.10532 9.98056 7.29279 9.79303L11.2928 5.79303C11.4803 5.60556 11.7346 5.50024 11.9998 5.50024C12.265 5.50024 12.5193 5.60556 12.7068 5.79303Z" fill="#6B7280"/>
</svg>
