<svg width="31" height="31" viewBox="0 0 31 31" fill="none" xmlns="http://www.w3.org/2000/svg">
<rect width="30.4" height="30.4" rx="15.2" fill="white"/>
<path fill-rule="evenodd" clip-rule="evenodd" d="M15.2 26.4C18.1704 26.4 21.0192 25.22 23.1196 23.1196C25.22 21.0192 26.4 18.1704 26.4 15.2C26.4 12.2296 25.22 9.38081 23.1196 7.2804C21.0192 5.18 18.1704 4 15.2 4C12.2296 4 9.38081 5.18 7.2804 7.2804C5.18 9.38081 4 12.2296 4 15.2C4 18.1704 5.18 21.0192 7.2804 23.1196C9.38081 25.22 12.2296 26.4 15.2 26.4ZM20.3898 13.3898C20.6448 13.1258 20.7859 12.7721 20.7827 12.405C20.7796 12.038 20.6323 11.6868 20.3727 11.4273C20.1132 11.1677 19.762 11.0204 19.395 11.0173C19.0279 11.0141 18.6742 11.1552 18.4102 11.4102L13.8 16.0204L11.9898 14.2102C11.7258 13.9552 11.3721 13.8141 11.005 13.8173C10.638 13.8204 10.2868 13.9677 10.0273 14.2273C9.76768 14.4868 9.62045 14.838 9.61726 15.205C9.61407 15.5721 9.75518 15.9258 10.0102 16.1898L12.8102 18.9898C13.0727 19.2523 13.4288 19.3997 13.8 19.3997C14.1712 19.3997 14.5273 19.2523 14.7898 18.9898L20.3898 13.3898Z" fill="#37B3E7"/>
</svg>
