<svg width="16" height="16" viewBox="0 0 16 16" fill="none" xmlns="http://www.w3.org/2000/svg">
<path fill-rule="evenodd" clip-rule="evenodd" d="M1.15115 1.15162C1.37618 0.926659 1.68135 0.80028 1.99955 0.80028C2.31775 0.80028 2.62291 0.926659 2.84795 1.15162L7.99955 6.30322L13.1511 1.15162C13.2618 1.03701 13.3943 0.945593 13.5407 0.882703C13.6871 0.819812 13.8445 0.786708 14.0039 0.785324C14.1632 0.783939 14.3212 0.814301 14.4687 0.874638C14.6162 0.934975 14.7502 1.02408 14.8628 1.13675C14.9755 1.24942 15.0646 1.3834 15.1249 1.53088C15.1853 1.67835 15.2156 1.83637 15.2142 1.99571C15.2129 2.15504 15.1798 2.3125 15.1169 2.45891C15.054 2.60531 14.9626 2.73773 14.8479 2.84842L9.69635 8.00002L14.8479 13.1516C15.0665 13.3779 15.1875 13.6811 15.1848 13.9957C15.182 14.3103 15.0558 14.6113 14.8333 14.8338C14.6108 15.0563 14.3099 15.1825 13.9952 15.1852C13.6806 15.188 13.3775 15.067 13.1511 14.8484L7.99955 9.69682L2.84795 14.8484C2.62163 15.067 2.3185 15.188 2.00387 15.1852C1.68923 15.1825 1.38826 15.0563 1.16577 14.8338C0.943276 14.6113 0.817073 14.3103 0.814339 13.9957C0.811605 13.6811 0.932559 13.3779 1.15115 13.1516L6.30275 8.00002L1.15115 2.84842C0.926183 2.62339 0.799805 2.31822 0.799805 2.00002C0.799805 1.68183 0.926183 1.37666 1.15115 1.15162Z" fill="#1F2A37"/>
</svg>
