<svg width="18" height="18" viewBox="0 0 18 18" fill="none" xmlns="http://www.w3.org/2000/svg">
<path d="M2.99961 0.600098C2.36309 0.600098 1.75264 0.852954 1.30255 1.30304C0.852466 1.75313 0.599609 2.36358 0.599609 3.0001V5.4001C0.599609 6.03662 0.852466 6.64707 1.30255 7.09715C1.75264 7.54724 2.36309 7.8001 2.99961 7.8001H5.39961C6.03613 7.8001 6.64658 7.54724 7.09666 7.09715C7.54675 6.64707 7.79961 6.03662 7.79961 5.4001V3.0001C7.79961 2.36358 7.54675 1.75313 7.09666 1.30304C6.64658 0.852954 6.03613 0.600098 5.39961 0.600098H2.99961ZM2.99961 10.2001C2.36309 10.2001 1.75264 10.453 1.30255 10.903C0.852466 11.3531 0.599609 11.9636 0.599609 12.6001V15.0001C0.599609 15.6366 0.852466 16.2471 1.30255 16.6972C1.75264 17.1472 2.36309 17.4001 2.99961 17.4001H5.39961C6.03613 17.4001 6.64658 17.1472 7.09666 16.6972C7.54675 16.2471 7.79961 15.6366 7.79961 15.0001V12.6001C7.79961 11.9636 7.54675 11.3531 7.09666 10.903C6.64658 10.453 6.03613 10.2001 5.39961 10.2001H2.99961ZM10.1996 3.0001C10.1996 2.36358 10.4525 1.75313 10.9026 1.30304C11.3526 0.852954 11.9631 0.600098 12.5996 0.600098H14.9996C15.6361 0.600098 16.2466 0.852954 16.6967 1.30304C17.1468 1.75313 17.3996 2.36358 17.3996 3.0001V5.4001C17.3996 6.03662 17.1468 6.64707 16.6967 7.09715C16.2466 7.54724 15.6361 7.8001 14.9996 7.8001H12.5996C11.9631 7.8001 11.3526 7.54724 10.9026 7.09715C10.4525 6.64707 10.1996 6.03662 10.1996 5.4001V3.0001ZM10.1996 12.6001C10.1996 11.9636 10.4525 11.3531 10.9026 10.903C11.3526 10.453 11.9631 10.2001 12.5996 10.2001H14.9996C15.6361 10.2001 16.2466 10.453 16.6967 10.903C17.1468 11.3531 17.3996 11.9636 17.3996 12.6001V15.0001C17.3996 15.6366 17.1468 16.2471 16.6967 16.6972C16.2466 17.1472 15.6361 17.4001 14.9996 17.4001H12.5996C11.9631 17.4001 11.3526 17.1472 10.9026 16.6972C10.4525 16.2471 10.1996 15.6366 10.1996 15.0001V12.6001Z" fill="#1F2A37"/>
</svg>
