<svg width="28" height="20" viewBox="0 0 28 20" fill="none" xmlns="http://www.w3.org/2000/svg">
<g clip-path="url(#clip0_1032_851)">
<path d="M0 5.03283V7.22228H4.37733L0 5.03283ZM3.62756 17.2223H10.1111V13.9795L3.62756 17.2223ZM17.8889 13.9801V17.2223H24.3717L17.8889 13.9801ZM0 12.7778V14.9673L4.37889 12.7778H0ZM24.3732 2.77783H17.8889V6.02061L24.3732 2.77783ZM28 14.9678V12.7778H23.6203L28 14.9678ZM28 7.22228V5.03283L23.6219 7.22228H28ZM10.1111 2.77783H3.62756L10.1111 6.02061V2.77783Z" fill="#00247D"/>
<path d="M19.5533 12.7778L27.1071 16.5561C27.476 16.2847 27.7411 15.9501 27.8771 15.5845L22.2654 12.7778H19.5533ZM10.1111 12.7778H8.44585L0.892848 16.5556C1.29807 16.85 1.81763 17.0606 2.40018 17.1583L10.1111 13.3017V12.7778ZM17.8888 7.22223H19.5541L27.1071 3.44445C26.6949 3.14572 26.1725 2.93669 25.6005 2.84167L17.8888 6.69834V7.22223ZM8.44585 7.22223L0.892848 3.44445C0.524145 3.7161 0.258815 4.05059 0.12207 4.41612L5.73374 7.22223H8.44585Z" fill="#CF1B2B"/>
<path d="M28 11.6667H16.3333V17.2223H17.8889V13.9801L24.3717 17.2223H24.8889C25.3021 17.2223 25.7112 17.1634 26.0921 17.049C26.473 16.9347 26.8181 16.7671 27.1071 16.5562L19.5533 12.7778H22.2654L27.8771 15.5845C27.9494 15.3973 28 15.2034 28 15.0001V14.9678L23.6203 12.7778H28V11.6667ZM0 11.6667V12.7778H4.37889L0 14.9673V15.0001C0 15.6062 0.341444 16.1545 0.892889 16.5556L8.44589 12.7778H10.1111V13.3017L2.40022 17.1578C2.62889 17.1967 2.86533 17.2223 3.11111 17.2223H3.62756L10.1111 13.9795V17.2223H11.6667V11.6667H0ZM28 5.00005C28.0005 4.41782 27.6797 3.85892 27.1071 3.4445L19.5541 7.22228H17.8889V6.69839L25.6006 2.84172C25.3676 2.8009 25.1288 2.77946 24.8889 2.77783H24.3732L17.8889 6.02061V2.77783H16.3333V8.33339H28V7.22228H23.6219L28 5.03283V5.00005ZM10.1111 2.77783V6.02061L3.62756 2.77783H3.11111C2.69782 2.7777 2.28866 2.83662 1.90772 2.95111C1.52677 3.0656 1.18173 3.23335 0.892889 3.4445L8.44589 7.22228H5.73378L0.122111 4.41617C0.0449401 4.606 0.00386821 4.80239 0 5.00005L0 5.03283L4.37733 7.22228H0V8.33339H11.6667V2.77783H10.1111Z" fill="#EEEEEE"/>
<path d="M16.3333 8.33339V2.77783H11.6667V8.33339H0V11.6667H11.6667V17.2223H16.3333V11.6667H28V8.33339H16.3333Z" fill="#CF1B2B"/>
</g>
<defs>
<clipPath id="clip0_1032_851">
<rect width="28" height="20" fill="white"/>
</clipPath>
</defs>
</svg>
