<svg xmlns="http://www.w3.org/2000/svg" width="20" height="19" fill="none"><path d="M9.801.036C9.596.077.554 5.096.334 5.291a.96.96 0 0 0-.024 1.4c.086.083.505.336 1.09.66.523.289 1.013.561 1.09.606l.139.08-.048.157a14.338 14.338 0 0 0-.462 2.173c-.151 1.193-.115 2.833.085 3.833.097.482.39.759.881.832l.582.085c.35.052 1.024.191 1.222.253l.105.033.012.907c.011.859.016.916.088 1.073.042.092.137.23.213.307a.98.98 0 0 0 1.386 0c.234-.239.282-.396.3-.982.009-.279.026-.508.037-.508.04 0 .783.44 1.087.644.358.239.583.41 1.007.762.446.371.529.41.876.41.352 0 .426-.036.921-.448a11.045 11.045 0 0 1 5.762-2.502c.403-.048.515-.081.705-.208.302-.202.39-.422.495-1.239.224-1.734.05-3.764-.464-5.426l-.049-.158.257-.144c.141-.079.622-.346 1.068-.592.447-.247.884-.512.971-.59a.96.96 0 0 0 .024-1.4c-.098-.095-1.492-.885-4.687-2.659a536.701 536.701 0 0 0-4.65-2.566 1.069 1.069 0 0 0-.552-.048m3.671 4.02C15.376 5.114 16.933 5.989 16.933 6c0 .011-1.56.887-3.466 1.946L10 9.872l-.649-.36c-.493-.274-.64-.37-.609-.398.023-.021.416-.244.875-.497.99-.547 1.077-.604 1.194-.782.433-.653.02-1.476-.766-1.528-.303-.02-.246-.046-1.986.921C7.295 7.653 6.662 8 6.65 8c-.037 0-3.583-1.979-3.583-2 0-.018 6.894-3.864 6.93-3.866.007 0 1.571.865 3.475 1.922M4.743 9.207l.26.147-.002 1.996a131.207 131.207 0 0 1-.01 2.002 8.7 8.7 0 0 1-.458-.088 29.184 29.184 0 0 0-.47-.095c-.069-.007-.091-1.615-.03-2.221.06-.603.279-1.763.357-1.892.021-.035.04-.027.353.151m10.912-.005c.068.226.234 1.077.278 1.424.066.517.09 1.291.061 1.921a7.78 7.78 0 0 1-.041.611 4.222 4.222 0 0 1-.408.092c-.217.043-.522.108-.678.145-1.503.357-3.276 1.187-4.539 2.127l-.328.244-.328-.244c-.18-.134-.514-.362-.741-.506-.402-.255-1.453-.81-1.773-.937L7 14.017v-3.556l.142.079c2.674 1.493 2.673 1.493 3.033 1.425.135-.025.775-.367 2.775-1.48 1.43-.795 2.614-1.443 2.63-1.439.017.004.05.074.075.156" fill-rule="evenodd" fill="#000"/></svg>