<svg width="21" height="21" viewBox="0 0 21 21" fill="none" xmlns="http://www.w3.org/2000/svg">
<path d="M1.29688 10.6989L3.29688 8.69885M3.29688 8.69885L10.2969 1.69885L17.2969 8.69885M3.29688 8.69885V18.6989C3.29688 18.9641 3.40223 19.2184 3.58977 19.406C3.7773 19.5935 4.03166 19.6989 4.29688 19.6989H7.29688M17.2969 8.69885L19.2969 10.6989M17.2969 8.69885V18.6989C17.2969 18.9641 17.1915 19.2184 17.004 19.406C16.8164 19.5935 16.5621 19.6989 16.2969 19.6989H13.2969M7.29688 19.6989C7.56209 19.6989 7.81645 19.5935 8.00398 19.406C8.19152 19.2184 8.29688 18.9641 8.29688 18.6989V14.6989C8.29688 14.4336 8.40223 14.1793 8.58977 13.9917C8.7773 13.8042 9.03166 13.6989 9.29688 13.6989H11.2969C11.5621 13.6989 11.8164 13.8042 12.004 13.9917C12.1915 14.1793 12.2969 14.4336 12.2969 14.6989V18.6989C12.2969 18.9641 12.4022 19.2184 12.5898 19.406C12.7773 19.5935 13.0317 19.6989 13.2969 19.6989M7.29688 19.6989H13.2969" stroke="#37B3E7" stroke-width="2" stroke-linecap="round" stroke-linejoin="round"/>
</svg>
