<svg width="20" height="21" viewBox="0 0 20 21" fill="none" xmlns="http://www.w3.org/2000/svg">
<path d="M19.1212 14.0559C18.3075 12.6562 17.8753 10.6472 17.8753 8.25C17.8753 6.16142 17.0456 4.15838 15.5687 2.68153C14.0919 1.20469 12.0889 0.375 10.0003 0.375C7.91169 0.375 5.90865 1.20469 4.4318 2.68153C2.95496 4.15838 2.12527 6.16142 2.12527 8.25C2.12527 10.6481 1.69496 12.6562 0.881208 14.0559C0.715159 14.3414 0.62714 14.6656 0.625988 14.9958C0.624836 15.3261 0.710592 15.6509 0.874645 15.9375C1.03766 16.2243 1.27427 16.4624 1.56004 16.6272C1.84581 16.792 2.17039 16.8775 2.50027 16.875H5.89215C5.98517 17.9003 6.45822 18.8537 7.21836 19.548C7.9785 20.2423 8.97078 20.6273 10.0003 20.6273C11.0298 20.6273 12.022 20.2423 12.7822 19.548C13.5423 18.8537 14.0154 17.9003 14.1084 16.875H17.5003C17.8297 16.877 18.1537 16.7913 18.4389 16.6265C18.7241 16.4617 18.9603 16.2239 19.1231 15.9375C19.2878 15.6513 19.3744 15.3267 19.3741 14.9965C19.3738 14.6662 19.2865 14.3418 19.1212 14.0559ZM10.0003 18.375C9.56803 18.3751 9.14902 18.2258 8.81418 17.9525C8.47934 17.6791 8.24922 17.2985 8.16277 16.875H11.8378C11.7513 17.2985 11.5212 17.6791 11.1864 17.9525C10.8515 18.2258 10.4325 18.3751 10.0003 18.375ZM3.12465 14.625C3.95433 12.9375 4.37527 10.7944 4.37527 8.25C4.37527 6.75816 4.9679 5.32742 6.02279 4.27252C7.07769 3.21763 8.50843 2.625 10.0003 2.625C11.4921 2.625 12.9229 3.21763 13.9777 4.27252C15.0326 5.32742 15.6253 6.75816 15.6253 8.25C15.6253 10.7934 16.0453 12.9375 16.875 14.625H3.12465Z" fill="#8B8BA7"/>
</svg>
