<svg width="33" height="38" viewBox="0 0 33 38" fill="none" xmlns="http://www.w3.org/2000/svg">
<path fill-rule="evenodd" clip-rule="evenodd" d="M0.5 18.0582C0.5 19.9147 1.2375 21.6951 2.55025 23.0079C3.86301 24.3207 5.64349 25.0582 7.5 25.0582H14.5V30.2302L11.914 27.6442C11.5368 27.2798 11.0316 27.0782 10.5072 27.0828C9.98281 27.0874 9.48118 27.2977 9.11036 27.6685C8.73955 28.0393 8.52921 28.541 8.52465 29.0654C8.5201 29.5897 8.72169 30.0949 9.086 30.4722L15.086 36.4722C15.4611 36.8471 15.9697 37.0577 16.5 37.0577C17.0303 37.0577 17.5389 36.8471 17.914 36.4722L23.914 30.4722C24.2783 30.0949 24.4799 29.5897 24.4753 29.0654C24.4708 28.541 24.2605 28.0393 23.8896 27.6685C23.5188 27.2977 23.0172 27.0874 22.4928 27.0828C21.9684 27.0782 21.4632 27.2798 21.086 27.6442L18.5 30.2302V25.0582H23.5C24.7335 25.0574 25.9536 24.8032 27.0847 24.3112C28.2158 23.8192 29.2337 23.0999 30.0752 22.198C30.9167 21.2962 31.5638 20.231 31.9764 19.0685C32.3889 17.9061 32.5582 16.6713 32.4735 15.4407C32.3889 14.2102 32.0523 13.0101 31.4845 11.9151C30.9166 10.8201 30.1298 9.85352 29.1728 9.07533C28.2158 8.29714 27.109 7.72398 25.9212 7.39142C24.7334 7.05887 23.49 6.97402 22.268 7.14215C22.0318 6.09932 21.5891 5.11439 20.9659 4.2455C20.3427 3.37662 19.5518 2.6414 18.6398 2.08326C17.7278 1.52512 16.7132 1.15536 15.6559 0.995835C14.5986 0.836307 13.5201 0.890235 12.484 1.15444C11.4479 1.41864 10.4753 1.88776 9.62349 2.53409C8.7717 3.18043 8.05805 3.99088 7.52468 4.91759C6.9913 5.8443 6.64902 6.86849 6.51802 7.92968C6.38703 8.99087 6.46999 10.0676 6.762 11.0962C5.04272 11.2784 3.45172 12.0905 2.29553 13.376C1.13933 14.6614 0.49975 16.3292 0.5 18.0582ZM18.5 25.0582H14.5V15.0582C14.5 14.5277 14.7107 14.019 15.0858 13.6439C15.4609 13.2689 15.9696 13.0582 16.5 13.0582C17.0304 13.0582 17.5391 13.2689 17.9142 13.6439C18.2893 14.019 18.5 14.5277 18.5 15.0582V25.0582Z" fill="#9CA3AF"/>
</svg>
